<svg width="382" height="136" viewBox="0 0 382 136" fill="none" xmlns="http://www.w3.org/2000/svg">
  <path
    d="M89.68 46.45V92.51C78.54 92 66.38 96.08 59.11 82.77V92.31H44.19V77.12L53.19 76.6C48.27 72.76 44.01 69.16 43.91 63.07C43.82 57.67 43.91 52.27 43.91 46.45H89.68ZM74.09 76.56V62H59.57V76.56H74.09Z"
    fill="black" />
  <path
    d="M194.21 92.37H188.13C188.13 87.86 188.07 83.53 188.13 79.21C188.2 75.67 186.81 73.94 183.02 74.09C178.29 74.29 173.55 74.09 168.17 74.09V92.09H161.39V46.09C168.82 46.09 176.09 45.69 183.29 46.22C188.79 46.63 193.22 49.47 195.02 55.22C196.61 60.22 195.02 64.9 190.13 69.62C195.16 73.06 196.37 79.59 194.21 92.37ZM168 67.54C173.17 67.54 177.71 67.88 182.18 67.44C186.42 67.02 188.55 64.12 188.68 59.8C188.82 55.19 186.11 52.8 182.05 52.39C177.59 51.93 173.05 52.29 168.31 52.29C168.19 53.57 168.02 54.54 168.02 55.52C168 59.37 168 63.22 168 67.54Z"
    fill="black" />
  <path
    d="M243.87 92.58V46.24C250.67 46.24 257.31 45.58 263.77 46.38C275.61 47.85 282.77 57.91 281.84 70.55C280.76 85.25 272.94 92.55 258.21 92.55C253.64 92.59 249.07 92.58 243.87 92.58ZM250.68 85.64C259.11 87.98 268.1 86.01 271.75 81.07C276.08 75.22 276.23 64.17 272.08 58C268.5 52.68 260.02 50.61 250.68 52.87V85.64Z"
    fill="black" />
  <path d="M237.11 86.36L236.79 92.29H202.79V46.29H236.06V52H209.47V65.42H232.06L232.33 71.42H209.51V86.36H237.11Z"
    fill="black" />
  <path
    d="M127.29 74.28V92.28L120.8 92.57V46.27C128.33 46.27 135.8 45.68 143.12 46.43C151.12 47.25 155.35 53.32 154.88 61.43C154.48 68.55 149.3 73.68 141.59 74.18C137.06 74.52 132.5 74.28 127.29 74.28ZM127.57 68.28C131.66 68.28 135.21 68.28 138.75 68.28C139.419 68.3002 140.089 68.2567 140.75 68.15C145.02 67.37 147.98 65.42 148 60.54C148.02 55.66 145.89 52.87 140.87 52.38C136.55 51.96 132.16 52.29 127.54 52.29L127.57 68.28Z"
    fill="black" />
  <path d="M287.78 92.18V46.3H294.38V86.41H321.38V92.18H287.78Z" fill="black" />
  <path d="M328.56 46.23H334.74V92.32L328.56 92.6V46.23Z" fill="black" />
</svg>
